<svg width="558" height="576" viewBox="0 0 558 576" fill="none" xmlns="http://www.w3.org/2000/svg">
<path d="M119.574 223.73C119.574 223.73 63.1861 228.02 14.9976 278.704C8.71334 263.778 -10.1434 282.407 8.71332 291.319C11.8555 313.767 26.5563 376.815 60.0595 404.653C51.6623 409.576 57.6126 437.72 72.4455 413.236C90.1681 415.132 134.418 397.082 134.418 397.082C134.418 397.082 126.724 230.549 119.574 223.73Z" fill="#979696"/>
<path d="M79.4211 288.774C79.4211 288.774 50.6137 228.456 54.8045 179.467C43.2808 169.007 51.876 154.516 67.4818 169.571C88.3271 160.675 195.925 132.558 278.312 137.767C285.272 120.06 309.865 129.273 293.114 147.138C306.226 164.845 309.787 196.514 308.844 200.151C307.904 203.796 143.433 321.068 79.4211 288.774Z" fill="#D4D4D4"/>
<path d="M316.658 213.765C316.658 213.765 373.046 218.051 421.234 268.735C427.518 253.812 446.375 272.442 427.518 281.353C424.376 303.802 409.675 366.849 376.172 394.684C384.569 399.611 378.619 427.754 363.786 403.271C346.064 405.167 301.814 387.116 301.814 387.116C301.814 387.116 309.508 220.584 316.658 213.765Z" fill="#979696"/>
<path d="M348.479 302.836C348.479 302.836 375.481 308.211 381.186 341.536C386.892 374.861 282.18 502.613 278.315 507.47C269.561 505.389 252.176 499.833 243.061 491.501C245.814 482.477 245.814 482.477 245.814 482.477C245.814 482.477 111.91 443.596 90.168 415.132C68.4255 386.668 71.4977 353.417 98.7166 336.899C125.932 320.385 143.852 326.956 157.12 331.818C170.391 336.683 238.835 358.2 240.229 356.814C241.624 355.428 291.773 305.107 314.537 302.84C337.305 300.574 348.479 302.836 348.479 302.836Z" fill="#2B2E4F"/>
<path d="M241.845 481.296C244.362 482.053 245.811 482.477 245.811 482.477C250.502 470.369 255.641 458.407 261.106 446.554C261.933 446.113 262.449 445.098 262.24 444.156C277.014 412.433 294.046 381.548 310.945 351.065C312.188 350.123 313.566 349.401 315.108 349.173C321.936 348.15 319.75 356.351 318.414 359.513C315.613 366.143 311.481 371.892 307.698 377.965C300.419 389.657 295.187 402.533 288.313 414.476C273.853 439.6 255.796 465.886 244.987 493.03C245.997 493.829 247.046 494.601 248.18 495.342C257.571 471.975 273.593 447.527 286.313 426.171C297.44 407.487 307.488 388.155 318.188 369.251C320.884 364.494 329.836 345.505 317.59 344.918C316.46 344.864 315.318 344.972 314.188 345.208C316.211 341.555 318.239 337.903 320.251 334.262C321.556 331.906 317.936 329.806 316.631 332.161C313.691 337.478 310.723 342.856 307.76 348.192C306.738 348.976 305.81 349.868 305.029 350.857C304.738 351.227 303.177 351.1 301.433 351.154C301.938 349.748 302.439 348.343 302.998 346.949C303.996 344.451 299.941 343.378 298.959 345.841C297.996 348.254 297.161 350.71 296.337 353.158C296.283 353.281 296.236 353.397 296.209 353.517C293.758 360.919 291.836 368.463 290.041 376.05C273.954 383.348 257.214 389.093 241.387 396.97C239.969 385.271 237.312 373.641 234.559 362.509C233.914 359.899 229.875 361.004 230.519 363.614C233.149 374.243 235.732 385.355 237.169 396.545C214.346 389.969 191.245 384.838 167.894 380.49C160.868 372.359 153.224 364.421 143.507 359.868C141.075 358.729 138.947 362.324 141.39 363.467C143.351 364.386 145.216 365.459 147.01 366.637C145.091 366.98 143.476 368 142.524 369.641C136.624 366.506 130.682 363.451 124.646 360.563C122.222 359.401 120.098 362.996 122.529 364.162C128.747 367.139 134.861 370.297 140.935 373.533C130.274 378.155 157.497 396.97 161.722 399.24C178.121 408.051 193.878 419.843 209.278 430.325C223.155 439.774 236.908 449.492 251.419 457.971C248.052 465.689 244.882 473.469 241.845 481.296ZM295.988 369.482C297.176 364.791 298.477 360.135 299.961 355.529C301.161 355.617 302.361 355.706 303.561 355.791C301.033 360.359 298.508 364.892 295.988 369.482ZM162.6 380.772C157.664 377.915 152.673 375.17 147.666 372.444C149.709 370.741 151.581 370.741 153.267 372.494C153.822 372.911 154.378 372.969 154.852 372.815C157.57 375.309 160.138 378.004 162.6 380.772ZM237.219 427.584C216.152 414.036 195.195 400.232 173.72 387.336C173.227 386.757 172.726 386.158 172.229 385.572C194.258 389.796 216.075 394.722 237.631 400.997C238.513 409.916 238.544 418.839 237.219 427.584ZM258.958 441.388C252.973 437.654 247.022 433.851 241.072 430.04C242.68 420.565 242.703 410.877 241.791 401.205C242.078 401.194 242.377 401.116 242.68 400.962C257.661 393.421 273.503 387.869 288.845 381.139C288.728 381.641 288.608 382.139 288.492 382.641C288.433 382.884 288.457 383.093 288.472 383.305C278.137 402.41 268.139 421.742 258.958 441.388ZM253.12 454.129C229.354 440.229 207.243 423.553 184.005 408.819C175.332 403.321 166.542 397.861 158.138 391.966C156.273 390.653 139.355 377.78 144.404 376.873C144.948 376.776 145.324 376.432 145.573 376.004C154.16 380.687 162.635 385.568 171.028 390.595C171.339 390.95 171.681 391.108 172.031 391.186C200.822 408.499 228.702 427.449 257.159 445.183C255.792 448.156 254.452 451.141 253.12 454.129Z" fill="#151E3F"/>
<path d="M237.821 157.864C237.821 157.864 300.287 158.258 317.05 180.467C333.81 202.676 368.031 265.851 368.734 279.743C369.434 293.631 349.179 307.805 349.179 307.805C349.179 307.805 314.541 298.948 300.291 329.038C287.583 355.868 258.841 372.71 240.229 372.772C211.717 372.861 188.398 352.224 172.485 343.609C154.7 333.988 113.821 324.177 94.9647 339.451C76.108 354.722 62.1413 317.929 82.3923 270.716C102.643 223.499 111.025 192.95 130.581 181.841C150.137 170.737 197.179 157.856 197.179 157.856C197.179 157.856 215.966 174.366 237.821 157.864Z" fill="#E2AC42"/>
<path d="M233.428 159.401C237.433 161.683 241.235 164.169 244.851 167.019C246.968 168.687 243.981 171.609 241.888 169.965C238.555 167.339 234.994 165.1 231.312 162.999C228.974 161.663 231.083 158.061 233.428 159.401Z" fill="#C64F24"/>
<path d="M225.486 162.729C227.067 167.007 228.131 171.451 229.677 175.745C230.589 178.278 226.538 179.363 225.637 176.853C224.091 172.559 223.023 168.111 221.446 163.833C220.514 161.308 224.565 160.223 225.486 162.729Z" fill="#C64F24"/>
<path d="M211.496 162.208C212.051 159.578 216.09 160.69 215.535 163.312C214.529 168.08 213.624 172.857 211.659 177.347C210.587 179.81 206.975 177.687 208.043 175.247C209.845 171.123 210.567 166.579 211.496 162.208Z" fill="#C64F24"/>
<path d="M194.429 169.814C197.809 166.165 200.356 161.876 203.654 158.161C205.448 156.146 208.4 159.1 206.617 161.107C203.316 164.822 200.776 169.107 197.389 172.76C195.556 174.741 192.6 171.787 194.429 169.814Z" fill="#C64F24"/>
<path d="M138.535 225.209C145.538 251.287 146.055 278.152 148.039 304.913C148.237 307.593 144.047 307.574 143.849 304.913C141.895 278.527 141.398 252.032 134.496 226.321C133.801 223.719 137.84 222.618 138.535 225.209Z" fill="#C64F24"/>
<path d="M128.421 290.342C121.411 279.318 101.02 282.148 91.4808 287.967C89.1698 289.373 87.0686 285.774 89.3641 284.369C101.024 277.256 123.694 275.114 132.041 288.241C133.49 290.519 129.862 292.608 128.421 290.342Z" fill="#C64F24"/>
<path d="M107.708 324.176C116.649 323.555 129.998 321.875 134.185 312.713C135.3 310.269 138.912 312.389 137.805 314.813C132.946 325.454 118.098 327.617 107.708 328.343C105.009 328.532 105.028 324.366 107.708 324.176Z" fill="#C64F24"/>
<path d="M83.6158 308.037C83.8488 314.875 89.8301 321.431 96.7087 322.099C99.3731 322.354 99.3964 326.528 96.7087 326.265C87.4998 325.373 79.7396 317.3 79.425 308.037C79.3317 305.346 83.5226 305.357 83.6158 308.037Z" fill="#C64F24"/>
<path d="M122.215 188.479C122.417 188.579 122.619 188.691 122.809 188.884C125.248 191.398 126.907 194.328 128.06 197.614C128.953 200.154 124.902 201.239 124.021 198.722C123.108 196.12 121.772 193.811 119.846 191.83C119.713 191.695 119.659 191.552 119.574 191.409C120.432 190.374 121.314 189.401 122.215 188.479Z" fill="#C64F24"/>
<path d="M170.675 191.235C188.149 215.043 208.458 240.02 240.229 242.252C242.929 242.445 242.909 238.279 240.229 238.09C210.144 235.97 190.767 211.576 174.295 189.131C172.718 186.984 169.083 189.058 170.675 191.235Z" fill="#C64F24"/>
<path d="M222.212 226.908C235.887 230.325 249.427 231.495 263.137 227.603C265.731 226.865 264.625 222.846 262.022 223.584C248.964 227.298 236.353 226.143 223.33 222.889C220.705 222.236 219.594 226.252 222.212 226.908Z" fill="#C64F24"/>
<path d="M306.987 188.459C305.845 190.892 302.233 188.776 303.371 186.359C305.356 182.123 308.164 178.316 311.423 174.945C312.549 175.803 313.578 176.718 314.537 177.664C311.461 180.841 308.851 184.49 306.987 188.459Z" fill="#C64F24"/>
<path d="M277.943 85.6963C277.943 85.6963 278.685 146.095 237.46 153.385C237.821 157.864 237.821 157.864 237.821 157.864C237.821 157.864 220.223 175.571 197.179 157.864C196.131 120.373 197.28 108.604 197.28 108.604C197.28 108.604 171.203 91.9436 196.814 75.2791C211.942 53.4099 273.752 56.5335 277.943 85.6963Z" fill="#FDD2AF"/>
<path d="M203.316 24.251C203.316 24.251 198.585 19.3049 200.158 13.575C201.902 7.21965 212.206 2.89919 221.031 17.9999C223.726 -2.56811 252.798 9.15019 235.669 23.7104C254.627 20.5829 277.675 24.247 287.761 49.2399C297.848 74.2365 294.706 120.056 269.561 95.0633C258.037 106.519 240.653 92.7196 225.039 65.6418C226.189 92.7196 213.515 96.6232 207.79 87.7697C207.755 79.4413 189.656 77.31 187.613 84.1094C178.424 64.8657 182.02 37.2706 203.316 24.251Z" fill="#C64F24"/>
<path d="M193.688 96.0749C194.453 94.1366 195.633 92.8161 197.241 91.6114C196.962 91.4068 196.651 91.2756 196.267 91.3528C193.629 91.8586 192.503 87.847 195.156 87.3335C201.471 86.1172 202.994 93.4533 203.044 98.1947C203.071 100.882 198.88 100.878 198.853 98.1947C198.849 97.7352 198.822 96.793 198.713 95.7583C198.306 96.1598 197.956 96.6193 197.731 97.1869C196.752 99.658 192.701 98.5846 193.688 96.0749Z" fill="#FB8C70"/>
<path d="M205.736 127.902C204.792 125.381 208.843 124.296 209.775 126.798C214.393 139.172 223.773 151.339 237.483 153.64C237.627 155.416 237.74 156.787 237.825 157.864C221.893 155.536 211.115 142.327 205.736 127.902Z" fill="#FB8C70"/>
<path d="M291.222 187.374C291.222 187.374 371.531 265.168 377.815 281.828C384.099 298.489 366.637 331.814 337.305 300.574C307.974 269.33 272.354 197.819 272.354 197.819C272.354 197.819 257.513 196.085 260.655 178.444C240.789 186.019 233.875 171.216 247.912 165.737C269.037 157.486 276.556 157.516 291.222 187.374Z" fill="#FDD2AF"/>
<path d="M260.655 178.44C260.64 178.451 260.624 178.451 260.605 178.459C262.508 177.544 264.423 176.648 266.384 175.849C268.885 174.83 269.965 178.864 267.499 179.868C265.032 180.868 262.648 182.054 260.263 183.247C260.247 181.78 260.341 180.212 260.655 178.44Z" fill="#FB8C70"/>
<path d="M257.202 281.002L186.083 263.318L181.212 338.069L243.061 352.304L257.202 281.002Z" fill="#C64F24"/>
<path d="M257.202 281.002L313.57 253.368L290.861 332.516L243.061 352.304L257.202 281.002Z" fill="#9D1C26"/>
<path d="M186.083 263.318L192.425 255.159L257.202 271.129L299.631 250.302L313.57 253.368L257.202 281.002L186.083 263.318Z" fill="white"/>
<path d="M90.4244 305.956C90.4244 305.956 85.9461 287.956 114.521 285.126C134.418 283.156 153.807 289.292 153.807 289.292C153.807 289.292 176.967 275.751 185.551 282.523C194.134 289.292 206.889 309.806 200.512 313.45C194.134 317.095 178.948 304.914 178.948 304.914C178.948 304.914 168.473 315.848 161.66 308.555C144.897 313.45 92.5178 326.783 90.4244 305.956Z" fill="#FDD2AF"/>
<path d="M269.678 505.03C269.678 505.03 265.37 512.335 263.277 515.802C261.183 519.27 263.273 569.95 253.497 574.811C243.721 579.676 232.543 514.405 234.64 507.466C236.738 500.528 244.991 493.026 244.991 493.026L269.678 505.03Z" fill="#C64F24"/>
<path d="M304.956 473.647C304.956 473.647 372.222 483.863 368.75 504.485C364.94 527.1 289.874 493.022 289.874 493.022L304.956 473.647Z" fill="#C64F24"/>
</svg>
