<svg width="438" height="506" viewBox="0 0 438 506" fill="none" xmlns="http://www.w3.org/2000/svg">
<path d="M366.486 337.61C366.486 337.61 364.277 385.411 369.063 390.625C373.857 395.839 388.831 394.972 390.031 390.625C391.227 386.281 391.824 342.824 390.031 334.134C386.861 338.923 366.486 337.61 366.486 337.61Z" fill="#2B2E4F"/>
<path d="M275.897 337.61C275.897 337.61 273.688 385.411 278.476 390.625C283.268 395.839 298.245 394.972 299.441 390.625C300.638 386.281 301.238 342.824 299.441 334.134C296.271 338.923 275.897 337.61 275.897 337.61Z" fill="#2B2E4F"/>
<path d="M162.426 337.61C162.426 337.61 160.217 385.411 165.006 390.625C169.797 395.839 184.774 394.972 185.971 390.625C187.167 386.281 187.764 342.824 185.971 334.134C182.8 338.923 162.426 337.61 162.426 337.61Z" fill="#2B2E4F"/>
<path d="M247.374 337.61C247.374 337.61 245.171 385.411 249.954 390.625C254.751 395.839 269.725 394.972 270.919 390.625C272.118 386.281 272.718 342.824 270.919 334.134C267.754 338.923 247.374 337.61 247.374 337.61Z" fill="#2B2E4F"/>
<path d="M213.424 79.8057C208.102 84.7014 189.017 91.9417 200.044 166.453C201.237 174.522 202.572 188.857 200.11 201.672C198.929 203.762 195.575 206.104 186.411 205.885C170.111 205.503 137.709 205.882 129.88 214.008C114.267 230.212 127.31 308.576 127.31 323.123C127.31 346.197 195.108 342.821 195.108 342.821L293.128 342.245C293.128 342.245 310.076 340.64 309.127 297.341C308.178 254.041 310.329 238.141 329.586 233.555C348.842 228.971 380.788 221.124 385.972 200.277C391.155 179.429 405.834 72.3348 405.834 72.3348C405.834 72.3348 241.196 61.0026 213.424 79.8057Z" fill="#9D1C26"/>
<path d="M432.6 84.7711C430.993 78.9988 415.905 69.9264 395.759 72.8232C375.608 75.723 375.038 98.1204 375.608 122.265C376.184 146.41 377.913 195.051 369.274 203.771C360.643 212.492 332.436 212.737 332.436 212.737C322.649 213.044 308.648 207.711 306.62 229.266C304.588 250.82 315.172 335.587 293.128 342.251C324.954 343.41 418.062 348.59 429.571 320.666C440.088 295.169 440.371 112.65 432.6 84.7711Z" fill="#C64F24"/>
<path d="M213.424 195.63C213.424 195.63 193.857 221.152 189.536 226.366C185.217 231.583 209.25 244.347 209.25 244.347L221.051 231.58L235.299 206.817L213.424 195.63Z" fill="#FDD2AF"/>
<path d="M356.614 132.357C356.614 132.357 383.097 147.568 350.285 209.565C346.443 203.292 328.986 188.126 318.047 195.078L310.787 225.932C310.787 225.932 259.338 208.403 258.759 243.746C252.425 244.326 221.913 247.802 209.25 228.101C232.282 201.448 240.705 172.031 240.705 172.031C240.705 172.031 255.306 126.245 254.727 128.501C254.154 130.761 278.627 115.698 278.627 115.698C278.627 115.698 299.634 124.898 309.416 116.532C319.201 108.166 356.614 132.357 356.614 132.357Z" fill="white"/>
<path d="M310.35 130.252C311.776 128.55 309.344 126.078 307.906 127.795C299.411 137.944 281.912 138.135 274.927 126.12C273.806 124.188 270.819 125.935 271.946 127.877C279.977 141.687 300.397 142.148 310.35 130.252Z" fill="#D4D4D4"/>
<path d="M315.97 140.255C309.669 147.662 300.556 152.995 290.594 151.396C288.415 151.047 287.481 154.396 289.675 154.748C300.876 156.544 311.221 151.169 318.408 142.712C319.849 141.02 317.417 138.547 315.97 140.255Z" fill="#D4D4D4"/>
<path d="M326.171 167.676C323.351 176.979 320.379 186.242 317.83 195.63L318.044 195.078C319.258 194.304 320.611 193.831 322.028 193.552C324.381 185.193 326.982 176.909 329.501 168.598C330.158 166.447 326.822 165.534 326.171 167.676Z" fill="#D4D4D4"/>
<path d="M248.399 54.7178C248.399 54.7178 238.9 114.109 282.647 105.415C280.339 116.714 285.239 127.412 285.239 127.412C285.239 127.412 303.66 133.591 309.413 116.535C311.716 98.3176 317.182 67.6121 317.182 67.6121C317.182 67.6121 324.378 49.9374 304.806 52.9828C299.053 59.4982 287.538 51.9696 286.39 31.11C279.48 53.1223 254.157 67.8972 248.399 54.7178Z" fill="#FDD2AF"/>
<path d="M303.464 85.6719C299.053 95.1842 291.386 102.749 280.893 104.718C278.702 105.127 279.634 108.476 281.812 108.066C293.089 105.949 301.695 97.6775 306.448 87.4221C307.379 85.408 304.405 83.6396 303.464 85.6719Z" fill="#FB8C70"/>
<path d="M310.106 61.7518C312.158 62.6224 313.047 59.2555 311.025 58.4001C306.836 56.6256 303.742 61.221 303.947 65.0004C304.073 67.2238 307.505 67.2389 307.4 65.0156C308.141 65.3614 308.684 65.8922 307.909 66.6657C306.33 68.252 308.774 70.709 310.353 69.1256C313.102 66.3684 311.498 63.2017 308.611 61.7943C309 61.5577 309.491 61.491 310.106 61.7518Z" fill="#FB8C70"/>
<path d="M296.753 3.98678C296.753 3.98678 274.731 -8.29178 248.326 10.2474C221.919 28.7896 221.919 69.9234 225.375 102.082C228.829 134.24 228.829 152.206 228.829 152.206C228.829 152.206 272.582 177.367 285.242 127.412C285.242 103.24 285.242 103.24 285.242 103.24C285.242 103.24 248.567 113.82 248.447 62.0339C257.611 72.8231 282.936 50.8048 286.393 31.107C287.541 56.6014 293.297 63.2624 304.809 54.7177C314.892 50.8079 322.224 64.8579 309.416 74.2912C310.103 84.4374 297.908 132.69 309.416 146.212C320.928 159.738 348.556 138.587 356.614 132.36C358.163 125.841 350.861 124.325 341.652 116.535C332.439 108.749 328.986 91.8052 328.986 62.0369C328.986 32.2657 324.384 0.0435706 296.753 3.98678Z" fill="#979696"/>
<path d="M202.786 151.578L264.934 131.328L278.627 196.531L228.307 212.735L202.786 151.578Z" fill="#2B2E4F"/>
<path d="M202.786 151.578L161.917 130.982L191.57 193.27L228.307 212.734L202.786 151.578Z" fill="#151E3F"/>
<path d="M264.934 131.328L257.141 122.265L200.586 142.154L174.381 124.956L161.917 130.983L202.786 151.578L264.934 131.328Z" fill="white"/>
<path d="M209.25 228.104L175.863 195.63C175.863 195.63 161.471 254.272 130.965 255.094C142.477 266.344 161.917 286.624 161.917 286.624L122.907 308.639C122.907 308.639 154.57 318.488 166.081 350.938C172.163 368.076 166.081 370.06 166.081 370.06C166.081 370.06 248.971 319.65 259.329 308.063C259.907 285.468 258.759 243.749 258.759 243.749C258.759 243.749 230.293 248.569 209.25 228.104Z" fill="#E2AC42"/>
<path d="M175.863 195.63C175.863 195.63 137.293 142.803 115.997 139.682C94.7033 136.561 75.7032 151.885 78.0055 172.034C80.3138 192.184 87.2209 255.094 87.2209 255.094C87.2209 255.094 101.607 262.868 118.305 252.439C118.305 227.527 116 202.033 116 202.033L144.143 250.883C144.143 250.883 153.648 251.126 167.805 231.871C176.547 219.987 178.169 209.562 175.863 195.63Z" fill="#FDD2AF"/>
<path d="M118.305 252.437C118.305 252.437 107.508 260.353 87.2208 255.091C90.2404 277.206 92.401 302.846 90.6743 308.494C88.9506 314.142 70.3873 352.819 72.9729 357.162C75.5646 361.509 106.36 346.734 122.91 313.708C124.884 309.355 118.305 252.437 118.305 252.437Z" fill="#2B2E4F"/>
<path d="M114.357 162.443C114.05 160.229 110.726 161.175 111.022 163.365C112.793 176.345 114.454 189.336 116.169 202.321L120.65 210.105C118.495 194.226 116.521 178.322 114.357 162.443Z" fill="#FB8C70"/>
<path d="M166.081 370.06C166.081 370.06 161.618 374.779 140.608 352.937L161.917 341.608C161.917 341.608 175.432 362.528 166.081 370.06Z" fill="#C64F24"/>
<path d="M130.965 255.094C130.965 255.094 126.074 248.093 137.079 238.62C142.513 248.053 144.143 250.883 144.143 250.883C144.143 250.883 139.02 254.272 130.965 255.094Z" fill="#C64F24"/>
<path d="M123.277 308.43C123.277 308.43 97.5812 329.79 92.398 338.48C87.2178 347.171 61.3136 420.178 61.3136 420.178C61.3136 420.178 71.656 434.953 98.0001 431.477C113.984 395.842 131.251 357.911 131.251 357.911L161.917 341.611C161.917 341.611 147.25 312.276 123.277 308.43Z" fill="#FDD2AF"/>
<path d="M98.0032 431.474C98.0032 431.474 76.5018 433.855 61.2172 419.429C53.3128 440.285 46.5294 464.436 42.3195 468.555C38.1066 472.674 -0.192139 496.998 0.000725917 502.06C0.199618 507.123 39.6705 509.798 69.9503 488.832C73.7624 485.972 98.0032 431.474 98.0032 431.474Z" fill="#2B2E4F"/>
<path d="M106.414 335.262C103.283 339.703 100.209 344.15 97.9428 349.112C97.0086 351.15 100.29 352.242 101.213 350.228C103.346 345.557 106.348 341.365 109.292 337.191C110.582 335.353 107.698 333.439 106.414 335.262Z" fill="#FB8C70"/>
<path d="M108.924 341.793C107.637 344.04 106.351 346.285 105.07 348.533C103.967 350.471 106.839 352.403 107.948 350.459C109.228 348.211 110.515 345.966 111.796 343.719C112.899 341.784 110.027 339.851 108.924 341.793Z" fill="#FB8C70"/>
<path d="M237.466 260.496C236.275 259.865 235.317 259.113 234.365 258.16C232.789 256.577 230.345 259.034 231.921 260.617C233.069 261.767 234.289 262.731 235.727 263.496C237.692 264.545 239.436 261.545 237.466 260.496Z" fill="#C64F24"/>
<path d="M161.585 286.281C179.293 277.009 197.781 269.28 215.015 259.155C216.937 258.027 215.202 255.021 213.273 256.155C210.326 257.884 207.333 259.531 204.323 261.142C206.574 257.199 208.458 253.019 210.452 248.973C211.444 246.971 208.467 245.208 207.472 247.216C204.603 253.037 201.999 259.161 198.115 264.394C185.196 270.976 171.952 276.948 159.117 283.715C160.302 284.941 161.166 285.836 161.585 286.281Z" fill="#C64F24"/>
<path d="M236.589 255.676C238.538 256.762 240.28 253.759 238.33 252.676C229.796 247.929 222.413 241.805 216.663 234.104C214.135 232.387 211.646 230.43 209.253 228.104L209.027 227.879C208.967 228.225 208.988 228.592 209.205 228.98C215.591 240.519 225.158 249.324 236.589 255.676Z" fill="#C64F24"/>
<path d="M259.413 278.632C256.318 274.901 253.657 270.909 251.472 266.465C249.203 261.852 246.431 251.781 249.312 246.164C249.761 246 250.162 245.666 250.348 245.081C250.49 244.799 250.62 244.517 250.752 244.232C249.478 244.226 248.076 244.171 246.582 244.068C244.056 248.851 244.912 256.086 245.864 260.814C247.636 269.623 253.431 277.461 259.464 283.925C259.446 282.156 259.431 280.388 259.413 278.632Z" fill="#C64F24"/>
<path d="M259.482 296.588C259.488 295.427 259.494 294.244 259.494 293.049C255.113 289.063 251.723 284.313 248.447 279.372C247.223 277.515 244.225 279.256 245.466 281.128C249.095 286.603 252.825 291.941 257.825 296.252C258.352 296.713 258.955 296.752 259.482 296.588Z" fill="#C64F24"/>
<path d="M350.285 209.565C350.285 209.565 338.201 237.125 327.548 248.963C314.096 263.902 294.448 253.744 269.837 193.774C259.913 187.255 243.508 179.56 248.974 169.583C255.577 157.532 272.308 166.456 272.308 166.456L270.641 158.542C270.641 158.542 280.92 158.542 282.997 182.912C288.801 188.126 312.164 218.109 312.164 218.109L318.047 195.078C318.047 195.078 334.742 184.792 350.285 209.565Z" fill="#FDD2AF"/>
<path d="M313.213 214.011L312.164 218.109C312.164 218.109 316.471 223.242 318.255 228.999C318.921 231.131 322.254 230.221 321.585 228.077C319.873 222.544 316.751 218.313 313.213 214.011Z" fill="#FB8C70"/>
</svg>
